<svg width="60" height="60" viewBox="0 0 60 60" fill="none" xmlns="http://www.w3.org/2000/svg">
<path d="M30 2C33.677 2 37.318 2.72424 40.7151 4.13137C44.1123 5.53851 47.199 7.60097 49.799 10.201C52.399 12.8011 54.4615 15.8878 55.8686 19.2849C57.2758 22.682 58 26.323 58 30C58 33.677 57.2758 37.318 55.8686 40.7151C54.4615 44.1123 52.399 47.199 49.799 49.799C47.1989 52.399 44.1122 54.4615 40.7151 55.8686C37.318 57.2758 33.677 58 30 58C26.323 58 22.682 57.2758 19.2849 55.8686C15.8877 54.4615 12.801 52.399 10.201 49.799C7.60096 47.1989 5.5385 44.1122 4.13137 40.7151C2.72424 37.318 2 33.677 2 30C2 26.323 2.72425 22.682 4.13138 19.2848C5.53851 15.8877 7.60098 12.801 10.201 10.201C12.8011 7.60096 15.8878 5.5385 19.2849 4.13137C22.682 2.72424 26.323 2 30 2L30 2Z" stroke="#FF8D30" stroke-width="4" stroke-linecap="round"/>
</svg>
