<svg width="17" height="16" viewBox="0 0 17 16" fill="none" xmlns="http://www.w3.org/2000/svg">
<path d="M11.9234 5.53025C12.1209 5.85864 12.4043 6.11126 12.735 6.25381C13.0657 6.39636 13.4277 6.42193 13.7719 6.32705L16.6257 5.53121L16.21 3.66881L13.3563 4.46465L12.1695 2.48033C11.9159 2.05655 11.5224 1.76184 11.0748 1.66049L7.76496 0.921289C7.39468 0.838394 7.01024 0.893792 6.671 1.07893C6.33176 1.26406 6.0566 1.56863 5.888 1.94561L4.46113 5.12897L6.00074 5.98817L7.42761 2.80385L9.1204 3.18209L4.74341 11.32H0.927521V13.24H4.74341C5.3441 13.24 5.90952 12.8829 6.21933 12.3078L7.86996 9.23969L12.3184 10.2323L13.8812 15.4634L15.5129 14.8557L13.9509 9.62561C13.8545 9.30451 13.684 9.01742 13.4564 8.79327C13.2289 8.56911 12.9524 8.41581 12.6549 8.34881L10.0395 7.76609L11.5645 4.93025L11.9234 5.53025Z" fill="#1D2E5B"/>
</svg>
